C:\GBW_MyPrograms\KinderuniversiteitApp\Resultaten\Ellis\Mars\Mars_v1.mot
version=1
nRows=14
nColumns=29
inDegrees=yes
endheader
                time	         pelvis_tilt	           pelvis_tx	           pelvis_ty	       hip_flexion_l	       hip_flexion_r	        knee_angle_l	        knee_angle_r	       ankle_angle_l	       ankle_angle_r	    lumbar_extension	hamstrings_r/activation	bifemsh_r/activation	glut_max_r/activation	iliopsoas_r/activation	rect_fem_r/activation	  vasti_r/activation	gastroc_r/activation	 soleus_r/activation	tib_ant_r/activation	hamstrings_l/activation	bifemsh_l/activation	glut_max_l/activation	iliopsoas_l/activation	rect_fem_l/activation	  vasti_l/activation	gastroc_l/activation	 soleus_l/activation	tib_ant_l/activation	
          1.67685587	         -4.79330109	          2.20616856	          1.00437707	          8.71693540	         37.82994819	        -46.17678541	        -29.68905318	          2.66165605	        -22.79917591	        -11.53294242	          0.24801438	          0.71879296	          0.47019515	          0.85106241	          0.82078515	          0.50630151	          0.97280739	          0.78965155	          0.13030820	          0.05214637	          0.58153058	          0.05047936	          0.83929032	          0.99167210	          0.44496589	          0.25087231	          0.21396609	          0.94555928	
          1.68803491	         -4.85173764	          2.21482998	          1.01411446	         11.96996566	         37.17185175	        -47.05963895	        -28.85946745	          2.74927104	        -25.47035393	        -12.73790841	          0.28903267	          0.83332721	          0.39778827	          0.91192934	          0.69941327	          0.42728622	          0.83387973	          0.66686283	          0.20512146	          0.05544818	          0.49048503	          0.05129578	          0.70772126	          0.99154285	          0.68188974	          0.21163754	          0.31151967	          0.96871285	
          1.69921395	         -5.02718702	          2.22320376	          1.02293586	         14.71590424	         36.71060499	        -46.84495494	        -28.32516282	          2.66400560	        -27.36387837	        -13.91681559	          0.26600996	          0.89604687	          0.33685042	          0.94703780	          0.61005603	          0.36075578	          0.70667258	          0.56295888	          0.19183476	          0.05059653	          0.41363976	          0.45632412	          0.59675320	          0.94839577	          0.81768343	          0.17850053	          0.26277470	          0.98202481	
          1.71039299	         -5.31756035	          2.23261833	          1.03071015	         16.30908088	         36.30314085	        -44.90796775	        -28.08552009	          2.88026322	        -28.15067281	        -14.84258655	          0.48411892	          0.88097595	          0.28892605	          0.83898626	          0.51985954	          0.30552540	          0.59804071	          0.47537002	          0.26864421	          0.05022131	          0.34887178	          0.68841815	          0.50323084	          0.81671292	          0.89546474	          0.17971025	          0.22154850	          0.98958894	
          1.72157203	         -5.68395447	          2.24374360	          1.03736907	         16.59722951	         35.88224821	        -41.85708068	        -28.32699721	          2.47661031	        -27.66888457	        -15.42151340	          0.41272550	          0.76973325	          0.32522062	          0.78607837	          0.70512292	          0.34996919	          0.76584284	          0.69256233	          0.22860901	          0.45525637	          0.29481557	          0.82109148	          0.42581214	          0.82800117	          0.77573612	          0.27901817	          0.55373708	          0.83429333	
          1.73275107	         -5.98371693	          2.25663422	          1.04328174	         15.76839825	         35.07506918	        -38.67683225	        -28.10146498	          1.20894928	        -26.92705826	        -15.78418014	          0.45920945	          0.66492731	          0.41825750	          0.67158273	          0.69053929	          0.62396778	          0.86380199	          0.82260576	          0.19402703	          0.38488520	          0.59533974	          0.69247164	          0.67008485	          0.82679810	          0.65418254	          0.58667891	          0.74420604	          0.70331883	
          1.74393011	         -6.31016227	          2.27035637	          1.04866664	         14.62712419	         33.94670713	        -36.06470051	        -27.06281924	         -0.05988216	        -26.73100910	        -15.95450766	          0.56098611	          0.71406287	          0.36708818	          0.78865490	          0.61970645	          0.52797343	          0.91095969	          0.89217049	          0.17056828	          0.63437390	          0.76321662	          0.58541549	          0.80669984	          0.70917917	          0.55189067	          0.49620806	          0.62801516	          0.82935614	
          1.75510915	         -6.75047083	          2.28398426	          1.05341548	         13.72046105	         32.92251048	        -33.64980713	        -25.98747363	         -0.80406818	        -26.54134047	        -15.96496223	          0.66342028	          0.76368498	          0.32571844	          0.85199185	          0.56180230	          0.44712877	          0.92624537	          0.92429321	          0.15658365	          0.75402021	          0.85521752	          0.49576697	          0.88136728	          0.61306111	          0.46586813	          0.42038204	          0.53024023	          0.90137152	
          1.76628819	         -7.27434935	          2.29717116	          1.05733118	         13.30286214	         32.26755935	        -31.50619441	        -25.34829823	         -1.07933524	        -26.40471237	        -15.88113406	          0.77470586	          0.79250509	          0.30629082	          0.84429862	          0.50701277	          0.37976047	          0.92184818	          0.92703455	          0.15220002	          0.71459366	          0.90356833	          0.42105625	          0.91056420	          0.53670602	          0.39352129	          0.36114449	          0.44842671	          0.94232711	
          1.77746723	         -7.86464622	          2.31005793	          1.06022860	         13.50125732	         32.07046767	        -29.86791456	        -25.36339751	         -1.55423512	        -26.22998827	        -15.66691955	          0.84063416	          0.79565241	          0.31300358	          0.79498830	          0.46153271	          0.32428369	          0.91854570	          0.92001444	          0.14451420	          0.61575783	          0.91304198	          0.35793303	          0.92529508	          0.49002118	          0.33265966	          0.63176912	          0.38002386	          0.81412500	
          1.78864627	         -8.45061030	          2.32298806	          1.06208597	         14.28733338	         32.23147190	        -29.12544260	        -26.04629433	         -1.88672488	        -25.91510271	        -15.32734342	          0.87633283	          0.79070177	          0.33509721	          0.73403337	          0.42398092	          0.27900540	          0.91244278	          0.90231583	          0.13805018	          0.52397348	          0.91550401	          0.30486815	          0.93393536	          0.47259717	          0.28118893	          0.53307787	          0.32161978	          0.89212224	
          1.79982530	         -8.97436416	          2.33626012	          1.06291721	         15.48235757	         32.64603634	        -28.73729554	        -27.35763316	         -2.00685963	        -25.42373454	        -14.87158455	          0.89753128	          0.78004261	          0.38848887	          0.66274487	          0.39214974	          0.24291803	          0.88936084	          0.83599540	          0.13546175	          0.44429657	          0.89012953	          0.26123011	          0.93492962	          0.51069404	          0.23909837	          0.51463317	          0.29268854	          0.87157400	
          1.81100434	         -9.41604291	          2.35009177	          1.06266845	         17.01920548	         33.24588879	        -28.58197145	        -29.24484944	         -1.82014236	        -24.71577066	        -14.27941629	          0.91108650	          0.76739505	          0.50379096	          0.59068653	          0.36445249	          0.21501886	          0.80610793	          0.72883916	          0.14640166	          0.37633209	          0.84656784	          0.22671041	          0.91623351	          0.57979076	          0.20564952	          0.44450933	          0.25793709	          0.92343982	
          1.82218338	         -9.75544371	          2.36478418	          1.06129878	         18.73846308	         33.90699847	        -28.08891509	        -31.58981732	         -1.05686131	        -23.68019871	        -13.52197909	          0.91455020	          0.74411729	          0.63132898	          0.52495766	          0.34390842	          0.19701113	          0.70335880	          0.62521492	          0.17369687	          0.31850542	          0.77204102	          0.20268384	          0.86600798	          0.65697883	          0.18392316	          0.37794014	          0.22106246	          0.95346277	
